<?xml version="1.0" encoding="utf-8"?>
<!-- Generator: Adobe Illustrator 19.1.0, SVG Export Plug-In . SVG Version: 6.00 Build 0)  -->
<svg version="1.1" id="Layer_1" xmlns="http://www.w3.org/2000/svg" xmlns:xlink="http://www.w3.org/1999/xlink" x="0px" y="0px"
	 viewBox="0 0 612 792" style="enable-background:new 0 0 612 792;" xml:space="preserve">
<style type="text/css">
	.st0{fill:#FFFFFF;}
	.st1{fill:#B54234;}
</style>
<path class="st0" d="M343.1,516.7c0.1-0.5,0.2-1.1,0.2-1.7V157.9c0-4.5-3.6-8.1-8.1-8.1h-57.9c-4.5,0-8.1,3.6-8.1,8.1v357.2
	c0,0.6,0.1,1.1,0.2,1.7c-18.6,12.1-30.8,33-30.8,56.8c0,37.4,30.3,67.7,67.7,67.7s67.7-30.3,67.7-67.7
	C373.9,549.7,361.6,528.8,343.1,516.7z"/>
<circle class="st1" cx="306.2" cy="573.5" r="43.3"/>
<path class="st1" d="M315.2,567.5h-18.1c-2.7,0-4.9-2.2-4.9-4.9V209.8c0-2.7,2.2-4.9,4.9-4.9h18.1c2.7,0,4.9,2.2,4.9,4.9v352.9
	C320.1,565.3,317.9,567.5,315.2,567.5z"/>
</svg>
