<?xml version="1.0" encoding="utf-8"?>
<!-- Generator: Adobe Illustrator 19.1.0, SVG Export Plug-In . SVG Version: 6.00 Build 0)  -->
<svg version="1.1" id="Layer_1" xmlns="http://www.w3.org/2000/svg" xmlns:xlink="http://www.w3.org/1999/xlink" x="0px" y="0px"
	 viewBox="0 0 791.8 114.1" style="enable-background:new 0 0 791.8 114.1;" xml:space="preserve">
<style type="text/css">
	.st0{fill:#F0EEF0;stroke:#2D343C;}
</style>
<path class="st0" d="M23.1,53.3v-0.2c0-15.9,12-29,29.2-29c10.6,0,16.9,3.5,22.1,8.6l-7.8,9c-4.3-3.9-8.7-6.3-14.3-6.3
	c-9.4,0-16.2,7.8-16.2,17.4v0.2c0,9.6,6.6,17.6,16.2,17.6c6.4,0,10.3-2.6,14.7-6.6l7.8,7.9c-5.8,6.2-12.2,10-23,10
	C35.3,82.1,23.1,69.4,23.1,53.3z"/>
<path class="st0" d="M84.6,25.2h12.3V70h27.9v11.2H84.6V25.2z"/>
<path class="st0" d="M134.7,25.2H147v56h-12.3V25.2z"/>
<path class="st0" d="M161,25.2h13.3L189,48.9l14.7-23.7H217v56h-12.2V44.6L189,68.5h-0.3l-15.6-23.7v36.3H161V25.2z"/>
<path class="st0" d="M249.6,24.8H261l24,56.4h-12.9L267,68.6h-23.7l-5.1,12.6h-12.6L249.6,24.8z M262.6,57.7l-7.4-18.2l-7.4,18.2
	H262.6z"/>
<path class="st0" d="M299.5,36.5h-17V25.2h46.4v11.4h-17v44.6h-12.3V36.5z"/>
<path class="st0" d="M338.3,25.2h42.2v11h-30v11.4h26.4v11h-26.4v11.8h30.4v11h-42.6V25.2z"/>
<path class="st0" d="M413.4,53.3v-0.2c0-15.9,12-29,29.2-29c10.6,0,16.9,3.5,22.1,8.6l-7.8,9c-4.3-3.9-8.7-6.3-14.3-6.3
	c-9.4,0-16.2,7.8-16.2,17.4v0.2c0,9.6,6.6,17.6,16.2,17.6c6.4,0,10.3-2.6,14.7-6.6l7.8,7.9c-5.8,6.2-12.2,10-23,10
	C425.6,82.1,413.4,69.4,413.4,53.3z"/>
<path class="st0" d="M474.9,25.2h12.3v22.2h22.7V25.2h12.3v56h-12.3V58.7h-22.7v22.5h-12.3V25.2z"/>
<path class="st0" d="M554.9,24.8h11.4l24,56.4h-12.9l-5.1-12.6h-23.7l-5.1,12.6h-12.6L554.9,24.8z M567.9,57.7l-7.4-18.2L553,57.7
	H567.9z"/>
<path class="st0" d="M598.9,25.2h11.4l26.2,34.5V25.2h12.2v56h-10.5l-27.1-35.6v35.6h-12.2V25.2z"/>
<path class="st0" d="M659.6,53.3v-0.2c0-15.9,12.4-29,29.4-29c10.1,0,16.2,2.7,22,7.7l-7.8,9.4c-4.3-3.6-8.2-5.7-14.6-5.7
	c-9,0-16.1,7.9-16.1,17.4v0.2c0,10.2,7,17.8,17,17.8c4.5,0,8.5-1.1,11.6-3.4v-8h-12.4V48.9H713v24.3c-5.8,4.9-13.7,8.9-23.9,8.9
	C671.6,82.1,659.6,69.9,659.6,53.3z"/>
<path class="st0" d="M724.8,25.2h42.2v11h-30v11.4h26.4v11H737v11.8h30.4v11h-42.6V25.2z"/>
</svg>
